<svg width="131" height="48" viewBox="0 0 131 48" fill="none" xmlns="http://www.w3.org/2000/svg">
<path d="M34.143 24.4758C34.2139 24.3257 34.2489 24.0356 34.178 23.8994C34.0003 23.5559 33.5399 23.4878 33.3631 23.8635C32.5823 25.403 29.5963 29.5409 26.6111 29.8015C25.229 29.9249 24.4446 28.7389 24.4446 26.9784C24.4446 26.6212 24.4795 26.2593 24.5145 25.8974C28.2455 26.8569 32.3659 23.195 32.3659 19.0718C32.3659 16.559 30.4157 15.1198 28.565 15.2819C24.8451 15.6106 20.9935 20.6509 20.5755 26.3772C19.7671 27.6082 18.7662 28.9148 18.1216 28.9728C16.6991 29.098 18.4761 23.9896 19.5028 20.8148C20.1418 18.7891 19.7514 16.0618 17.5848 16.2515C15.9146 16.3979 14.2443 18.4134 12.9322 20.7863C13.2867 18.8932 12.8254 16.6732 10.8724 16.8454C9.30713 16.9816 7.67368 18.814 6.39289 21.0809C6.57705 20.5284 6.71608 20.0496 6.85328 19.6776C7.42047 18.1565 4.39851 17.1326 3.44644 19.1915C2.37926 21.4722 0 30.2932 0 32.2609C0 34.5554 2.95106 35.1917 3.19875 33.5923C3.41145 32.3539 3.94365 29.9415 4.62134 27.4075C5.50804 24.6369 7.74458 21.0321 8.67272 20.9502C9.1331 20.9106 8.7786 22.4464 8.56222 23.2198C7.60554 26.5346 6.67925 30.4497 6.67925 31.6697C6.67925 33.9643 9.63031 34.6015 9.878 33.0021C10.0557 31.8382 10.5907 29.5336 11.1938 27.146C12.0096 24.3146 14.4284 20.4419 15.3851 20.3563C15.8455 20.3167 15.4919 21.8553 15.2792 22.625C14.4634 25.3873 13.3963 28.7454 13.3963 30.8972C13.3963 32.4754 13.9285 33.4312 15.1724 33.3244C17.0775 33.1559 19.1547 30.5252 20.5911 28.3052C20.9594 31.3438 23.1831 32.6154 25.5845 32.4045C29.9507 32.0178 33.0436 26.437 34.143 24.4758ZM28.6396 17.7542C29.0291 17.7192 29.3127 18.0875 29.3127 18.5562C29.3127 20.9584 26.717 24.3082 24.8009 24.1903C25.6176 20.8535 27.6074 17.8426 28.6359 17.7532L28.6396 17.7542Z" fill="#ED4343"/>
<path d="M116.595 31.5351C114.477 24.6524 118.276 14.3867 118.79 12.3997C119.33 10.3169 115.737 9.18901 114.4 11.8169C114.081 12.4145 113.716 13.2984 113.3 14.3757C113.708 12.2137 112.939 9.74055 110.371 9.98731C107.765 10.2387 104.897 12.6179 102.821 17.5072L102.768 17.5505C102.48 17.7724 102.197 17.9833 101.923 18.184C101.243 18.6903 100.53 19.1516 99.789 19.5651C100.772 16.7945 101.331 14.1031 101.331 12.2202C101.331 11.1327 100.676 10.5306 99.789 10.6098C96.6152 10.886 95.2598 16.6187 95.2598 19.265C95.2516 19.8826 95.3626 20.496 95.5867 21.0715C93.7175 25.6643 91.5261 29.5371 90.1716 29.6549C88.7251 29.7838 90.3558 22.1451 92.9238 14.4715C93.5794 12.4817 88.7251 11.118 87.7887 13.8849C86.9093 16.5478 85.2777 21.38 84.8275 25.9074C83.8146 27.4211 82.5615 28.9137 81.4409 29.015C79.7568 29.1614 80.7393 25.3991 81.7641 21.6801C84.2428 12.8408 86.9977 5.51975 87.4627 3.87986C88.0686 1.8468 84.101 0.450917 82.9307 3.24361C82.2355 5.09803 79.1961 14.3177 77.3306 20.6995C76.8877 22.2031 76.3877 23.8301 75.955 25.4314C74.8316 27.2434 73.1291 29.7415 72.096 29.8335C69.4783 30.0665 74.7129 17.2098 75.1346 16.0358C75.8795 14.0387 72.004 12.7818 70.6495 15.3913C70.3263 15.9889 69.9506 16.8701 69.528 17.9437C69.9506 15.7891 69.2057 13.3085 66.635 13.5332C63.4123 13.8205 59.7725 17.3461 57.6704 24.8365C57.4291 25.703 57.2413 26.5308 57.1059 27.3134C56.6207 27.307 56.1456 27.3134 55.7248 27.3281L54.6327 27.4101L54.572 27.2747C53.8105 25.4848 52.3621 23.6018 50.1357 21.519C48.4341 19.9298 46.7675 18.742 45.2962 17.6923C42.9408 16.0137 41.2393 14.8002 41.0542 13.0885C40.9474 12.1014 41.3525 11.0379 42.3239 9.74607C45.2068 5.9166 48.1432 4.05112 49.7748 3.90472C50.5409 3.84026 51.0933 4.12294 51.3309 4.70947L51.3631 4.79234L51.3346 4.88442C50.3346 7.72591 52.3207 9.46984 54.409 9.37684C58.1841 9.21203 59.2219 3.98298 57.0019 1.49139C56.0231 0.391067 54.4734 -0.12088 52.6365 0.0439378C51.6653 0.145166 50.712 0.37651 49.8024 0.731752C44.0688 2.88911 40.1039 6.65137 38.2495 8.70192C36.0397 11.1364 35.0185 13.0443 35.0397 14.7044C35.0683 17.2144 37.3693 19.2254 40.8525 22.2685C41.2558 22.623 41.6812 22.9876 42.1103 23.3734C42.8911 24.0889 43.625 24.726 44.3386 25.342C45.3661 26.237 46.2565 27.0059 47.0088 27.7867L47.3311 28.1163L46.8559 28.1983C33.735 30.3952 28.8089 34.3674 27.2915 35.9686C22.9685 40.5467 25.9794 48.9689 37.8628 47.9091C40.2025 47.6983 42.4795 47.1118 44.4371 46.2057C51.3309 43.0236 55.1788 37.5901 55.2533 29.5223L55.4375 29.48C55.8205 29.3879 56.3168 29.282 56.8665 29.1862C56.5083 33.7993 58.1326 36.441 60.6472 36.2191C63.1618 35.9972 64.764 33.8324 66.1865 31.8206V32.3426C66.1865 34.4153 66.7611 35.6786 68.3964 35.5359C70.7084 35.3315 73.1844 32.2929 75.0351 29.5085C74.9228 30.189 74.8612 30.8768 74.851 31.5664C74.851 33.6418 75.7377 34.8812 77.6068 34.7155C80.2522 34.4797 82.8442 31.4928 84.717 28.724C84.8901 32.4071 86.7915 33.9033 89.2766 33.6851C92.9192 33.3629 96.6566 27.6615 98.9447 21.8523C99.6571 21.5916 100.342 21.2619 100.991 20.868C101.25 20.7207 101.505 20.5559 101.76 20.3846C101.768 20.3773 101.778 20.3736 101.785 20.3662C101.686 20.6885 101.59 21.0218 101.498 21.3616C99.5441 28.6246 102.381 33.0231 105.605 32.7109C107.999 32.4826 110.474 30.5011 111.924 28.5675C111.863 30.1567 112.154 32.0001 112.594 33.1419C100.697 37.9888 75.4872 43.6718 62.6996 39.7567C60.8304 39.1839 59.4189 38.5597 59.4364 40.9877C59.4723 44.6459 62.7383 47.0722 67.5465 47.0261C77.6501 46.7867 99.3277 40.9491 113.541 35.1537C116.519 38.2531 120.481 38.4685 124.399 37.6205C131.964 35.9944 130.89 26.7462 116.595 31.5351ZM48.7002 34.3453C45.1092 45.3559 27.3274 44.9719 30.8134 39.0486C32.4791 36.2172 44.31 31.3602 48.8844 30.9062L49.0897 30.8841L49.1183 31.0886C49.1256 31.1484 49.3098 32.4762 48.7002 34.3453ZM66.821 25.4903C65.3744 29.9035 63.4141 33.1391 62.3847 32.7128C61.4059 32.28 61.7319 28.3852 63.1756 23.9729C64.6194 19.5605 66.6331 16.313 67.6119 16.6988C68.6404 17.1269 68.2675 21.0724 66.821 25.493V25.4903ZM110.655 21.9398C109.243 26.3669 107.308 29.6172 106.28 29.2019C105.293 28.7756 105.588 24.8743 106.999 20.4546C108.409 16.0349 110.396 12.7662 111.379 13.1428C112.407 13.5663 112.067 17.5146 110.655 21.9426V21.9398ZM123.766 36.2789C121.29 36.812 118.333 35.4162 117.34 33.4043C126.187 29.7912 129.35 35.0746 123.766 36.2789Z" fill="#ED4343"/>
<path d="M126.229 1.09408C124.61 7.25401 123.502 10.8597 121.335 17.3438C120.82 18.864 123.502 19.9026 123.898 19.1503C125.792 15.3577 128.278 9.32022 130.451 2.47523C131.005 0.752472 126.86 -1.31097 126.229 1.09408Z" fill="#ED4343"/>
<path d="M120.585 26.8521C121.966 26.7315 123.347 25.4535 123.663 23.9913C124.018 22.5245 123.189 21.4444 121.806 21.566C120.467 21.6847 119.083 22.96 118.73 24.4268C118.378 25.8936 119.202 26.9782 120.585 26.8521Z" fill="#ED4343"/>
</svg>
