<svg width="551" height="554" viewBox="0 0 551 554" fill="none" xmlns="http://www.w3.org/2000/svg">
<path d="M352.349 554H112.687C86.7047 554 65.5662 532.792 65.5662 506.724V47.2758C65.5662 21.208 86.7047 0 112.687 0H352.349C378.331 0 399.469 21.208 399.469 47.2758V506.724C399.469 532.792 378.331 554 352.349 554Z" fill="#7D7D7D"/>
<path d="M399.469 169C398.37 169 397.476 169.897 397.476 171V235C397.476 236.103 398.37 237 399.469 237C400.569 237 401.463 236.103 401.463 235V171C401.463 169.897 400.569 169 399.469 169Z" fill="#4A4A4A"/>
<path d="M394.984 47.2762V506.716C394.984 529.406 377.382 547.966 355.125 549.406H355.115C354.786 549.426 354.458 549.446 354.119 549.456C353.531 549.486 352.942 549.496 352.344 549.496C352.344 549.496 350.152 549.336 346.145 549.036C342.098 548.736 336.207 548.286 328.862 547.696C326.659 547.526 324.336 547.336 321.885 547.136C317.001 546.736 311.638 546.296 305.887 545.796C303.595 545.606 301.222 545.396 298.8 545.186C286.421 544.116 272.557 542.866 257.935 541.446C255.463 541.216 252.971 540.976 250.459 540.726C249.801 540.656 249.134 540.596 248.466 540.526C238.04 539.496 227.325 538.386 216.571 537.206C215.903 537.136 215.235 537.066 214.577 536.996C196.048 534.946 177.449 532.716 160.046 530.316C146.66 528.476 133.982 526.536 122.599 524.526C118.891 523.866 115.323 523.206 111.914 522.536C111.247 522.406 110.579 522.276 109.921 522.136C85.8301 517.296 70.0519 512.076 70.0519 506.716V47.2762C70.0519 23.6463 89.1392 4.49625 112.692 4.49625H138.148C142.215 4.49625 145.484 7.67624 145.833 11.7462C145.863 12.0163 145.893 12.2862 145.943 12.5562C146.68 16.6463 150.418 19.4962 154.564 19.4962H310.472C314.618 19.4962 318.356 16.6463 319.094 12.5562C319.143 12.2862 319.173 12.0163 319.203 11.7462C319.552 7.67624 322.821 4.49625 326.888 4.49625H352.344C375.897 4.49625 394.984 23.6463 394.984 47.2762Z" fill="#262626"/>
<path d="M64.5696 121C63.4702 121 62.5762 121.897 62.5762 123V139C62.5762 140.103 63.4702 141 64.5696 141C65.669 141 66.5631 140.103 66.5631 139V123C66.5631 121.897 65.669 121 64.5696 121Z" fill="#4A4A4A"/>
<path d="M64.5696 169C63.4702 169 62.5762 169.897 62.5762 171V202C62.5762 203.103 63.4702 204 64.5696 204C65.669 204 66.5631 203.103 66.5631 202V171C66.5631 169.897 65.669 169 64.5696 169Z" fill="#4A4A4A"/>
<path d="M64.5696 213C63.4702 213 62.5762 213.897 62.5762 215V246C62.5762 247.103 63.4702 248 64.5696 248C65.669 248 66.5631 247.103 66.5631 246V215C66.5631 213.897 65.669 213 64.5696 213Z" fill="#4A4A4A"/>
<path d="M135.836 11.5001H100.95C99.8492 11.5001 98.9567 12.3956 98.9567 13.5001V14.5001C98.9567 15.6047 99.8492 16.5001 100.95 16.5001H135.836C136.936 16.5001 137.829 15.6047 137.829 14.5001V13.5001C137.829 12.3956 136.936 11.5001 135.836 11.5001Z" fill="#E6E6E6"/>
<path d="M333.187 16.5001C335.389 16.5001 337.174 14.7093 337.174 12.5001C337.174 10.291 335.389 8.50015 333.187 8.50015C330.985 8.50015 329.2 10.291 329.2 12.5001C329.2 14.7093 330.985 16.5001 333.187 16.5001Z" fill="#F2F2F2" fill-opacity="0.7"/>
<path d="M344.151 16.5001C346.353 16.5001 348.138 14.7093 348.138 12.5001C348.138 10.291 346.353 8.50015 344.151 8.50015C341.949 8.50015 340.164 10.291 340.164 12.5001C340.164 14.7093 341.949 16.5001 344.151 16.5001Z" fill="#F2F2F2" fill-opacity="0.7"/>
<path d="M355.115 16.5001C357.317 16.5001 359.102 14.7093 359.102 12.5001C359.102 10.291 357.317 8.50015 355.115 8.50015C352.913 8.50015 351.128 10.291 351.128 12.5001C351.128 14.7093 352.913 16.5001 355.115 16.5001Z" fill="#F2F2F2" fill-opacity="0.7"/>
<path d="M118.302 157.425C128.986 157.425 137.647 148.919 137.647 138.425C137.647 127.932 128.986 119.425 118.302 119.425C107.618 119.425 98.9567 127.932 98.9567 138.425C98.9567 148.919 107.618 157.425 118.302 157.425Z" fill="#16A34A"/>
<path d="M273.386 131.925H169.257C165.685 131.925 162.779 129.009 162.779 125.425C162.779 121.841 165.685 118.925 169.257 118.925H273.386C276.958 118.925 279.865 121.841 279.865 125.425C279.865 129.009 276.958 131.925 273.386 131.925Z" fill="#E6E6E6" fill-opacity="0.7"/>
<path d="M105.989 351.877C104.327 351.877 102.975 353.234 102.975 354.901C102.975 356.569 104.327 357.925 105.989 357.925H215.053C216.715 357.925 218.068 356.569 218.068 354.901C218.068 353.234 216.715 351.877 215.053 351.877H105.989Z" fill="#F2F2F2" fill-opacity="0.7"/>
<path d="M354.648 153.925H169.257C165.685 153.925 162.779 151.009 162.779 147.425C162.779 143.841 165.685 140.925 169.257 140.925H354.648C358.22 140.925 361.127 143.841 361.127 147.425C361.127 151.009 358.22 153.925 354.648 153.925Z" fill="#E6E6E6" fill-opacity="0.7"/>
<path d="M143.062 61.9254H103.442C100.694 61.9254 98.4581 59.6822 98.4581 56.9254C98.4581 54.1686 100.694 51.9254 103.442 51.9254H143.062C145.81 51.9254 148.045 54.1686 148.045 56.9254C148.045 59.6822 145.81 61.9254 143.062 61.9254Z" fill="#E6E6E6" fill-opacity="0.7"/>
<path d="M354.15 52.4254H314.53C312.053 52.4254 310.045 54.4401 310.045 56.9254C310.045 59.4107 312.053 61.4254 314.53 61.4254H354.15C356.627 61.4254 358.635 59.4107 358.635 56.9254C358.635 54.4401 356.627 52.4254 354.15 52.4254Z" fill="#16A34A"/>
<path d="M297.336 61.9254H257.717C254.969 61.9254 252.733 59.6822 252.733 56.9254C252.733 54.1686 254.969 51.9254 257.717 51.9254H297.336C300.084 51.9254 302.32 54.1686 302.32 56.9254C302.32 59.6822 300.084 61.9254 297.336 61.9254Z" fill="#E6E6E6" fill-opacity="0.7"/>
<path d="M148.793 337.193H110.917C104.047 337.193 98.4581 331.585 98.4581 324.693V312.277C98.4581 305.384 104.047 299.777 110.917 299.777H148.793C155.663 299.777 161.252 305.384 161.252 312.277V324.693C161.252 331.585 155.663 337.193 148.793 337.193Z" fill="#F2F2F2" fill-opacity="0.7"/>
<path d="M348.668 265.632H110.917C104.047 265.632 98.4581 260.024 98.4581 253.132V198.425C98.4581 191.533 104.047 185.925 110.917 185.925H348.668C355.538 185.925 361.127 191.533 361.127 198.425V253.132C361.127 260.024 355.538 265.632 348.668 265.632Z" fill="#16A34A"/>
<path d="M347.141 337.193H309.265C302.395 337.193 296.806 331.585 296.806 324.693V312.277C296.806 305.384 302.395 299.777 309.265 299.777H347.141C354.011 299.777 359.6 305.384 359.6 312.277V324.693C359.6 331.585 354.011 337.193 347.141 337.193Z" fill="#F2F2F2" fill-opacity="0.7"/>
<path d="M247.002 337.193H209.126C202.256 337.193 196.667 331.585 196.667 324.693V312.277C196.667 305.384 202.256 299.777 209.126 299.777H247.002C253.872 299.777 259.461 305.384 259.461 312.277V324.693C259.461 331.585 253.872 337.193 247.002 337.193Z" fill="#F2F2F2" fill-opacity="0.7"/>
<path d="M162.28 392.425H132.378V420.425H162.28V392.425Z" fill="#E2E2E2" fill-opacity="0.7"/>
<path d="M162.28 432.425H145.336V460.425H162.28V432.425Z" fill="#E2E2E2" fill-opacity="0.7"/>
<path d="M201.152 432.425H171.251V460.425H201.152V432.425Z" fill="#E2E2E2" fill-opacity="0.7"/>
<path d="M201.152 472.425H171.251V500.425H201.152V472.425Z" fill="#E2E2E2" fill-opacity="0.7"/>
<path d="M240.025 432.425H210.123V460.425H240.025V432.425Z" fill="#E2E2E2" fill-opacity="0.7"/>
<path d="M201.152 392.425H171.251V420.425H201.152V392.425Z" fill="#E2E2E2" fill-opacity="0.7"/>
<path d="M240.025 392.425H210.123V420.425H240.025V392.425Z" fill="#E2E2E2" fill-opacity="0.7"/>
<path d="M317.769 392.425H287.868V420.425H317.769V392.425Z" fill="#E2E2E2" fill-opacity="0.7"/>
<path d="M240.025 472.425H210.123V500.425H240.025V472.425Z" fill="#E2E2E2" fill-opacity="0.7"/>
<path d="M278.897 392.425H248.995V420.425H278.897V392.425Z" fill="#E2E2E2" fill-opacity="0.7"/>
<path d="M333.219 432.425H313.782V460.425H333.219C335.971 460.425 338.202 458.186 338.202 455.425V437.425C338.202 434.664 335.971 432.425 333.219 432.425Z" fill="#E2E2E2" fill-opacity="0.7"/>
<path d="M162.28 472.425H156.3C153.547 472.425 151.316 474.664 151.316 477.425V495.425C151.316 498.186 153.547 500.425 156.3 500.425H162.28V472.425Z" fill="#E2E2E2" fill-opacity="0.7"/>
<path d="M278.897 472.425H248.995V500.425H278.897V472.425Z" fill="#E2E2E2" fill-opacity="0.7"/>
<path d="M355.645 392.425H326.74V420.425H355.645C358.397 420.425 360.629 418.186 360.629 415.425V397.425C360.629 394.664 358.397 392.425 355.645 392.425Z" fill="#E2E2E2" fill-opacity="0.7"/>
<path d="M304.812 472.847C304.201 472.579 303.528 472.425 302.818 472.425H287.868V500.425H302.818C303.528 500.425 304.201 500.271 304.812 500.003V472.847Z" fill="#E2E2E2" fill-opacity="0.7"/>
<path d="M278.897 432.425H248.995V460.425H278.897V432.425Z" fill="#E2E2E2" fill-opacity="0.7"/>
<path d="M304.812 432.425H287.868V460.425H304.812V432.425Z" fill="#E2E2E2" fill-opacity="0.7"/>
<path d="M136.365 432.425H125.9C123.147 432.425 120.916 434.664 120.916 437.425V455.425C120.916 458.186 123.147 460.425 125.9 460.425H136.365V432.425Z" fill="#E2E2E2" fill-opacity="0.7"/>
<path d="M123.408 392.425H103.473C100.721 392.425 98.4897 394.664 98.4897 397.425V415.425C98.4897 418.186 100.721 420.425 103.473 420.425H123.408V392.425Z" fill="#E2E2E2" fill-opacity="0.7"/>
<path d="M315.788 542.98L306.908 542.979L302.683 508.615L315.789 508.616L315.788 542.98Z" fill="#A97A7A"/>
<path d="M316.1 552.274L288.793 552.273V551.926C288.793 546.037 293.552 541.263 299.422 541.263L304.41 537.466L313.717 541.264L316.101 541.264L316.1 552.274Z" fill="#2F2E41"/>
<path d="M371.071 542.98L362.192 542.979L357.967 508.615L371.073 508.616L371.071 542.98Z" fill="#A97A7A"/>
<path d="M371.384 552.274L344.077 552.273V551.926C344.077 546.037 348.836 541.263 354.706 541.263L359.694 537.466L369.001 541.264L371.384 541.264L371.384 552.274Z" fill="#2F2E41"/>
<path d="M389.007 279.824H312.742L303.484 308.517L301.25 430.541L301.642 525.757L319.01 525.822L334.306 423.474C334.306 423.474 332.604 413.406 335.601 414.806C338.598 416.205 333.533 403.852 337.063 405.029C340.592 406.205 344.026 358.436 344.026 358.436L352.442 430.541L357.847 525.757H373.51L386.647 378.897C386.647 378.897 382.522 370.008 387.97 364.106C393.418 358.205 392.86 309.442 392.86 309.442L389.007 279.824Z" fill="#73719C"/>
<path d="M391.017 278.012C391.017 278.012 398.329 288.461 391.95 304.829C381.347 332.033 311.01 309.152 306.703 292.205C300.086 289.913 311.117 286.561 307.87 281.002C307.672 280.664 309.693 288.205 308.091 279.86C305.52 266.467 309.934 225.319 309.934 225.319L311.392 200.9C312.804 177.247 322.389 154.828 338.497 137.499L375.121 137.499L391.017 163.383L392.664 228.259L391.017 278.012Z" fill="#3F3D56"/>
<path d="M279.382 280.48L290.738 263.208L300.641 268.945L288.043 286.738C288.082 287.424 288.033 288.129 287.881 288.833C287.055 292.663 283.553 295.034 280.06 294.128C276.567 293.222 274.405 289.382 275.231 285.551C275.758 283.108 277.375 281.264 279.382 280.48Z" fill="#A97A7A"/>
<path d="M333.133 143.046C320.412 143.046 309.944 153.092 309.38 165.842L306.951 220.771C306.951 220.771 306.933 223.821 305.808 222.918C304.683 222.015 304.588 225.21 304.588 225.21C304.588 225.21 304.537 230.096 303.476 227.299C302.414 224.502 302.27 229.563 302.27 229.563L286.82 256.234C288.896 260.541 287.283 265.867 286.769 270.205L297.878 280.464C297.878 280.464 297.781 277.384 300.175 277.436C314.855 277.754 329.885 237.972 329.632 223.258C329.344 206.469 333.133 143.046 333.133 143.046Z" fill="#3F3D56"/>
<path d="M338.352 66.6236L349.707 83.8961L359.611 78.1592L347.012 60.3661C347.052 59.6795 347.003 58.9751 346.851 58.2709C346.024 54.4403 342.523 52.0697 339.029 52.9759C335.536 53.8821 333.374 57.722 334.201 61.5526C334.728 63.9955 336.345 65.8396 338.352 66.6236Z" fill="#A97A7A"/>
<path d="M392.102 204.058C379.381 204.058 368.914 194.012 368.35 181.261L365.92 126.333C365.92 126.333 365.902 123.282 364.777 124.186C363.652 125.089 363.557 121.894 363.557 121.894C363.557 121.894 363.506 117.008 362.445 119.805C361.384 122.602 361.239 117.54 361.239 117.54L341.036 79.589L342.183 74.6385L353.24 66.3187C353.24 66.3187 357.708 67.7457 359.145 69.6677C366.395 79.3648 388.333 109.834 388.602 123.845C388.923 140.634 392.102 204.058 392.102 204.058Z" fill="#3F3D56"/>
<path d="M347.264 131.948C347.806 132.073 348.347 132.182 348.889 132.265C350.572 132.541 352.255 132.625 353.897 132.525C358.88 132.265 363.58 130.418 367.38 127.375C371.396 124.164 374.396 119.624 375.654 114.224C378.613 101.474 370.705 88.7162 357.997 85.7483C345.472 82.8138 332.948 90.4719 329.748 102.895C329.698 103.088 329.648 103.272 329.606 103.464C326.648 116.222 334.548 128.971 347.264 131.948Z" fill="#A97A7A"/>
<path d="M376.883 116.626C373.584 125.362 365.236 132.286 355.93 132.702C354.345 132.766 352.696 132.646 351.296 131.888C349.886 131.139 348.799 129.632 348.918 128.042C349.167 124.909 353.415 123.707 354.613 120.795C355.405 118.872 354.493 116.404 352.632 115.47C350.77 114.546 348.255 115.285 347.195 117.088C349.13 114.13 347.997 109.961 345.555 107.419C343.123 104.867 339.704 103.564 336.406 102.325L336.332 101.068C334.001 101.964 331.458 100.162 330.444 97.823C331.624 96.3902 332.37 94.6522 333.089 92.9421C332.121 93.6261 331.043 94.1253 329.901 94.4304C329.965 92.3967 326.925 91.4261 327.441 89.4293C328.159 86.656 332.315 82.5054 330.951 79.9909C333.494 80.712 335.153 83.6886 334.434 86.24C335.346 83.7441 336.258 81.2481 337.171 78.743C337.88 80.4809 338.59 82.2188 339.308 83.9475C342.782 81.775 346.375 79.5657 350.411 78.8724C354.447 78.1698 359.091 79.3531 361.348 82.792C363.698 81.3591 366.849 81.8028 369.171 83.2911C371.493 84.7794 373.114 87.1367 374.413 89.5772C378.818 97.8046 380.181 107.899 376.883 116.626Z" fill="#2F2E41"/>
</svg>
