<svg xmlns="http://www.w3.org/2000/svg" width="187" height="56" viewBox="0 0 187 56" fill="none"><path fill-rule="evenodd" clip-rule="evenodd" d="M90.9657 19.0258V22.8721C90.9657 23.3238 91.3382 23.6892 91.7839 23.6892H94.0324L94.0058 32.0194C94.3517 34.278 95.3562 35.879 97.0259 36.8023C98.6823 37.7257 100.505 38.1243 102.481 37.9648C103.552 37.9117 104.35 37.832 104.849 37.739C105.195 37.6726 105.574 37.5795 106.026 37.4334C106.439 37.3005 106.685 36.8621 106.572 36.4436L105.607 32.7036C105.501 32.3051 105.128 32.0526 104.736 32.0925C101.955 32.3582 100.565 31.7338 100.565 30.2258C100.565 28.5983 100.591 27.4491 100.591 23.6825H105.754C106.206 23.6825 106.572 23.3105 106.572 22.8654V19.0192C106.572 18.5674 106.199 18.2021 105.754 18.2021H100.884L100.791 12.2899C100.791 11.8381 100.418 11.4728 99.9728 11.4728C99.8265 11.4728 99.6801 11.5126 99.5604 11.5924L94.3717 13.944C94.1189 14.0901 93.9592 14.3691 93.9592 14.6548L94.0523 18.1954H91.8039C91.3382 18.1954 90.9724 18.5674 90.9724 19.0125L90.9657 19.0258Z" fill="white"></path><path d="M166.309 32.7568C168.584 32.7568 170.426 30.5115 170.426 27.7214C170.426 24.9314 168.584 22.6861 166.309 22.6861C164.033 22.6861 162.191 24.9314 162.191 27.7214C162.191 30.5115 164.033 32.7568 166.309 32.7568ZM169.867 36.3905C168.304 37.4733 166.521 38.018 164.506 38.018C161.472 38.018 156.058 36.3905 155.599 28.1798C155.133 19.9558 160.787 17.0462 164.506 17.0462C166.98 17.0462 168.757 17.6839 169.814 18.9527V9.87848C169.814 9.42676 170.187 9.0614 170.632 9.0614H175.848C176.3 9.0614 176.666 9.4334 176.666 9.87848V36.9485C176.666 37.4002 176.294 37.7655 175.848 37.7655H170.699C170.247 37.7655 169.881 37.3935 169.881 36.9485V36.3905H169.867Z" fill="white"></path><path fill-rule="evenodd" clip-rule="evenodd" d="M119.49 32.5442C121.712 32.5442 123.515 30.3387 123.515 27.6151C123.515 24.8915 121.712 22.6861 119.49 22.6861C117.269 22.6861 115.466 24.8915 115.466 27.6151C115.466 30.3387 117.282 32.5442 119.49 32.5442ZM119.384 38.018C113.517 38.018 108.767 33.3679 108.767 27.6151C108.767 21.8623 113.517 17.2123 119.384 17.2123C125.251 17.2123 130.001 21.8623 130.001 27.6151C130.001 33.3679 125.251 38.018 119.384 38.018Z" fill="white"></path><path fill-rule="evenodd" clip-rule="evenodd" d="M180.884 18.2021H185.952C186.405 18.2021 186.757 18.5608 186.757 19.0059V36.9817C186.757 37.4334 186.398 37.7855 185.952 37.7855H180.844C180.391 37.7855 180.039 37.4268 180.039 36.9817L180.092 19.0059C180.079 18.5542 180.438 18.2021 180.884 18.2021Z" fill="white"></path><path d="M183.385 15.319C185.38 15.319 186.997 13.7457 186.997 11.8049C186.997 9.86414 185.38 8.29082 183.385 8.29082C181.39 8.29082 179.773 9.86414 179.773 11.8049C179.773 13.7457 181.39 15.319 183.385 15.319Z" fill="white"></path><path fill-rule="evenodd" clip-rule="evenodd" d="M142.906 32.5442C145.128 32.5442 146.931 30.3387 146.931 27.6151C146.931 24.8915 145.128 22.6861 142.906 22.6861C140.684 22.6861 138.882 24.8915 138.882 27.6151C138.882 30.3387 140.684 32.5442 142.906 32.5442ZM142.786 38.018C136.919 38.018 132.169 33.3679 132.169 27.6151C132.169 21.8623 136.919 17.2123 142.786 17.2123C148.654 17.2123 153.403 21.8623 153.403 27.6151C153.403 33.3679 148.654 38.018 142.786 38.018Z" fill="white"></path><path d="M69.0135 29.2161C70.9492 30.352 73.517 31.5544 77.2223 31.5544C79.6836 31.5544 81.034 30.7506 81.034 29.2692C81.034 27.562 79.1913 27.2365 75.8586 26.6386L74.5215 26.3995C68.3416 25.3034 65.6541 22.5798 65.7871 17.5577C65.9202 12.1105 70.2774 8.60968 76.8564 8.60968C80.4286 8.60968 83.3822 9.02154 87.4068 11.0277L87.4467 11.041C87.7527 11.2137 87.9523 11.5326 87.9523 11.8979C87.9523 12.0175 87.9257 12.1238 87.8991 12.2301L85.7171 16.5414C85.5442 16.8336 85.2249 17.0196 84.8723 17.0196C84.7127 17.0196 84.5663 16.9798 84.4333 16.9134C82.6704 16.0033 80.2623 15.0733 77.3354 15.0733C74.8741 15.0733 73.4571 15.8638 73.4571 17.2256C73.4571 18.8132 75.5326 19.1852 77.9341 19.6037C78.413 19.6835 78.8986 19.7765 79.3909 19.8828L80.2889 20.0688C85.9167 21.1914 88.7771 23.9549 88.7771 28.2661C88.7771 35.4472 82.7702 37.9981 77.1424 37.9981C72.6256 37.9981 68.5744 36.9817 65.5477 35.1283C65.2683 34.9556 65.082 34.6367 65.082 34.2979C65.082 34.1119 65.1352 33.9259 65.2284 33.7798L67.6365 29.6412C67.7961 29.3091 68.142 29.0699 68.5345 29.0699C68.7208 29.0965 68.8804 29.1364 69.0268 29.2161H69.0135Z" fill="white"></path><path d="M34.2823 56.0004C36.8834 56.0004 38.9921 53.9393 38.9921 51.3969C38.9921 48.8544 36.8834 46.7933 34.2823 46.7933C31.6812 46.7933 29.5726 48.8544 29.5726 51.3969C29.5726 53.9393 31.6812 56.0004 34.2823 56.0004Z" fill="white"></path><path d="M7.58039 42.874C7.58039 42.874 -0.18938 36.1712 0.00353381 23.1776C0.216404 10.204 9.30331 -0.750226 26.6523 0.0402842C54.4385 1.2958 60.5386 33.4343 37.2958 39.4329C25.8473 42.3824 24.2442 44.1893 20.5655 46.0825C15.736 48.5537 10.2014 45.4249 7.58039 42.8673V42.874Z" fill="white"></path></svg>